<svg width="20" height="20" viewBox="0 0 20 20" fill="none" xmlns="http://www.w3.org/2000/svg">
<path d="M9.99976 1.6665C14.5946 1.6665 18.3336 5.40383 18.3337 9.99951C18.3337 14.5945 14.5948 18.3335 9.99976 18.3335C8.83746 18.3335 7.71251 18.0993 6.65601 17.6353C6.35101 17.5019 6.21213 17.1453 6.34546 16.8403C6.47883 16.5337 6.83473 16.3966 7.14136 16.5308C8.04364 16.9264 9.00502 17.1274 9.99976 17.1274C13.9289 17.1274 17.1267 13.9287 17.1267 9.99951C17.1265 6.06966 13.9288 2.87354 9.99976 2.87354C6.07001 2.87371 2.87396 6.06977 2.87378 9.99951C2.87378 11.5387 3.35498 13.0035 4.26831 14.2368C4.46568 14.5043 4.40978 14.8813 4.14233 15.0796C3.874 15.2787 3.49691 15.2236 3.29858 14.9536C2.23117 13.5128 1.66675 11.7994 1.66675 9.99951C1.66692 5.40394 5.40501 1.66668 9.99976 1.6665Z" fill="white"/>
<path d="M9.9814 13.6764C9.34807 13.6764 8.7914 13.5564 8.3114 13.3164C7.8314 13.0697 7.45474 12.703 7.1814 12.2164C6.91474 11.7297 6.7814 11.1264 6.7814 10.4064C6.7814 9.43302 7.0414 8.66302 7.5614 8.09635C8.0814 7.52302 8.85474 7.23635 9.8814 7.23635C10.2414 7.23635 10.5981 7.27635 10.9514 7.35635C11.3114 7.43635 11.6447 7.56635 11.9514 7.74635L11.5014 9.00635C11.3414 8.90635 11.1414 8.82969 10.9014 8.77635C10.6614 8.71635 10.4314 8.68635 10.2114 8.68635C9.6914 8.68635 9.28807 8.84635 9.0014 9.16635C8.7214 9.47969 8.5814 9.90302 8.5814 10.4364C8.5814 11.023 8.7414 11.4697 9.0614 11.7764C9.38807 12.0764 9.80807 12.2264 10.3214 12.2264C10.6081 12.2264 10.8781 12.183 11.1314 12.0964C11.3847 12.0097 11.6047 11.903 11.7914 11.7764L12.3114 12.8964C12.0647 13.083 11.7581 13.2597 11.3914 13.4264C11.0247 13.593 10.5547 13.6764 9.9814 13.6764Z" fill="white"/>
</svg>
