<svg width="9" height="9" viewBox="0 0 9 9" fill="none" xmlns="http://www.w3.org/2000/svg">
<path fill-rule="evenodd" clip-rule="evenodd" d="M0.5 1.95833C0.5 0.864495 0.511712 0.5 1.95833 0.5C3.40495 0.5 3.41667 0.864495 3.41667 1.95833C3.41667 3.05217 3.42128 3.41667 1.95833 3.41667C0.495386 3.41667 0.5 3.05217 0.5 1.95833Z" stroke="white" stroke-linecap="round" stroke-linejoin="round"/>
<path fill-rule="evenodd" clip-rule="evenodd" d="M5.08333 1.95833C5.08333 0.864495 5.09505 0.5 6.54167 0.5C7.98829 0.5 8 0.864495 8 1.95833C8 3.05217 8.00461 3.41667 6.54167 3.41667C5.07872 3.41667 5.08333 3.05217 5.08333 1.95833Z" stroke="white" stroke-linecap="round" stroke-linejoin="round"/>
<path fill-rule="evenodd" clip-rule="evenodd" d="M0.5 6.54167C0.5 5.44783 0.511712 5.08333 1.95833 5.08333C3.40495 5.08333 3.41667 5.44783 3.41667 6.54167C3.41667 7.63551 3.42128 8 1.95833 8C0.495386 8 0.5 7.63551 0.5 6.54167Z" stroke="white" stroke-linecap="round" stroke-linejoin="round"/>
<path fill-rule="evenodd" clip-rule="evenodd" d="M5.08333 6.54167C5.08333 5.44783 5.09505 5.08333 6.54167 5.08333C7.98829 5.08333 8 5.44783 8 6.54167C8 7.63551 8.00461 8 6.54167 8C5.07872 8 5.08333 7.63551 5.08333 6.54167Z" stroke="white" stroke-linecap="round" stroke-linejoin="round"/>
</svg>
