<svg width="11" height="12" viewBox="0 0 11 12" fill="none" xmlns="http://www.w3.org/2000/svg">
<path d="M7.06839 3.52768C7.35982 3.23625 7.83232 3.23625 8.12375 3.52768C8.41518 3.81911 8.41518 4.29162 8.12375 4.58305L4.58302 8.12378C4.29159 8.41521 3.81909 8.41521 3.52766 8.12378C3.23623 7.83235 3.23623 7.35984 3.52766 7.06841L7.06839 3.52768Z" fill="white"/>
<path d="M8.12381 7.06839C8.41524 7.35982 8.41524 7.83232 8.12381 8.12375C7.83238 8.41518 7.35987 8.41518 7.06844 8.12375L3.52771 4.58302C3.23628 4.29159 3.23628 3.81909 3.52771 3.52766C3.81914 3.23623 4.29165 3.23623 4.58308 3.52766L8.12381 7.06839Z" fill="white"/>
</svg>
