<svg width="15" height="14" viewBox="0 0 15 14" fill="none" xmlns="http://www.w3.org/2000/svg">
<path fill-rule="evenodd" clip-rule="evenodd" d="M6.42519 10.4955H2.48706C2.22831 10.4955 2.01831 10.2855 2.01831 10.0268C2.01831 9.768 2.22831 9.558 2.48706 9.558H6.42519C6.68394 9.558 6.89394 9.768 6.89394 10.0268C6.89394 10.2855 6.68394 10.4955 6.42519 10.4955Z" fill="white"/>
<path fill-rule="evenodd" clip-rule="evenodd" d="M12.1194 4.43775H8.18194C7.92319 4.43775 7.71319 4.22775 7.71319 3.969C7.71319 3.71025 7.92319 3.50025 8.18194 3.50025H12.1194C12.3782 3.50025 12.5882 3.71025 12.5882 3.969C12.5882 4.22775 12.3782 4.43775 12.1194 4.43775Z" fill="white"/>
<path fill-rule="evenodd" clip-rule="evenodd" d="M2.00013 2.00025H5.89125V5.87H2.00013V2.00025Z" fill="#8C86CE"/>
<path fill-rule="evenodd" clip-rule="evenodd" d="M3.94563 2.9375C3.39 2.9375 2.9375 3.385 2.9375 3.93563C2.9375 4.48563 3.39 4.9325 3.94563 4.9325C4.50188 4.9325 4.95375 4.48563 4.95375 3.93563C4.95375 3.385 4.50188 2.9375 3.94563 2.9375ZM3.94562 5.87C2.87312 5.87 2 5.0025 2 3.93562C2 2.86875 2.87312 2 3.94562 2C5.01875 2 5.89125 2.86875 5.89125 3.93562C5.89125 5.0025 5.01875 5.87 3.94562 5.87Z" fill="white"/>
<path fill-rule="evenodd" clip-rule="evenodd" d="M10.9924 9.005C10.4362 9.005 9.98369 9.4525 9.98369 10.0025C9.98369 10.5531 10.4362 11 10.9924 11C11.5481 11 11.9999 10.5531 11.9999 10.0025C11.9999 9.4525 11.5481 9.005 10.9924 9.005ZM10.9924 11.9375C9.91931 11.9375 9.04619 11.0694 9.04619 10.0025C9.04619 8.93563 9.91931 8.0675 10.9924 8.0675C12.0649 8.0675 12.9374 8.93563 12.9374 10.0025C12.9374 11.0694 12.0649 11.9375 10.9924 11.9375Z" fill="white"/>
</svg>
