<svg width="20" height="20" viewBox="0 0 20 20" fill="none" xmlns="http://www.w3.org/2000/svg">
<path fill-rule="evenodd" clip-rule="evenodd" d="M9.04591 12.694H5.44532C5.20874 12.694 5.01674 12.5038 5.01674 12.2695C5.01674 12.0352 5.20874 11.845 5.44532 11.845H9.04591C9.28248 11.845 9.47448 12.0352 9.47448 12.2695C9.47448 12.5038 9.28248 12.694 9.04591 12.694Z" fill="white"/>
<path fill-rule="evenodd" clip-rule="evenodd" d="M14.2521 7.20777H10.6521C10.4155 7.20777 10.2235 7.01759 10.2235 6.78325C10.2235 6.54891 10.4155 6.35872 10.6521 6.35872H14.2521C14.4887 6.35872 14.6807 6.54891 14.6807 6.78325C14.6807 7.01759 14.4887 7.20777 14.2521 7.20777Z" fill="white"/>
<path fill-rule="evenodd" clip-rule="evenodd" d="M6.77887 5.84906C6.27086 5.84906 5.85715 6.25434 5.85715 6.75302C5.85715 7.25113 6.27086 7.65585 6.77887 7.65585C7.28744 7.65585 7.70059 7.25113 7.70059 6.75302C7.70059 6.25434 7.28744 5.84906 6.77887 5.84906ZM6.77887 8.50491C5.79829 8.50491 5 7.71925 5 6.75302C5 5.78679 5.79829 5 6.77887 5C7.76002 5 8.55773 5.78679 8.55773 6.75302C8.55773 7.71925 7.76002 8.50491 6.77887 8.50491Z" fill="white"/>
<path fill-rule="evenodd" clip-rule="evenodd" d="M13.2217 11.3442C12.7131 11.3442 12.2994 11.7494 12.2994 12.2475C12.2994 12.7462 12.7131 13.1509 13.2217 13.1509C13.7297 13.1509 14.1429 12.7462 14.1429 12.2475C14.1429 11.7494 13.7297 11.3442 13.2217 11.3442ZM13.2217 14C12.2406 14 11.4423 13.2138 11.4423 12.2475C11.4423 11.2813 12.2406 10.4951 13.2217 10.4951C14.2023 10.4951 15 11.2813 15 12.2475C15 13.2138 14.2023 14 13.2217 14Z" fill="white"/>
</svg>
