<svg width="8" height="11" viewBox="0 0 8 11" fill="none" xmlns="http://www.w3.org/2000/svg">
<path d="M5.5 0.5V1.2C5.5 1.48003 5.5 1.62004 5.4455 1.727C5.39757 1.82108 5.32108 1.89757 5.227 1.9455C5.12004 2 4.98003 2 4.7 2H3.3C3.01997 2 2.87996 2 2.773 1.9455C2.67892 1.89757 2.60243 1.82108 2.5545 1.727C2.5 1.62004 2.5 1.48003 2.5 1.2V0.5M2.1 10.5H5.9C6.46005 10.5 6.74008 10.5 6.95399 10.391C7.14215 10.2951 7.29513 10.1422 7.39101 9.95399C7.5 9.74008 7.5 9.46005 7.5 8.9V2.1C7.5 1.53995 7.5 1.25992 7.39101 1.04601C7.29513 0.857847 7.14215 0.704867 6.95399 0.608993C6.74008 0.5 6.46005 0.5 5.9 0.5H2.1C1.53995 0.5 1.25992 0.5 1.04601 0.608993C0.857847 0.704867 0.704867 0.857847 0.608993 1.04601C0.5 1.25992 0.5 1.53995 0.5 2.1V8.9C0.5 9.46005 0.5 9.74008 0.608993 9.95399C0.704867 10.1422 0.857847 10.2951 1.04601 10.391C1.25992 10.5 1.53995 10.5 2.1 10.5Z" stroke="white" stroke-linecap="round" stroke-linejoin="round"/>
</svg>
