<svg width="20" height="20" viewBox="0 0 20 20" fill="none" xmlns="http://www.w3.org/2000/svg">
<path d="M3.61447 5.34108C3.90376 5.20393 4.2485 5.29275 4.43667 5.55294C4.62484 5.81332 4.60273 6.1717 4.38379 6.40645L3.7841 6.85328C3.50009 7.09082 3.3353 7.4426 3.33308 7.81422V14.6322C3.34133 15.7426 4.23618 16.6394 5.33969 16.6434H8.74524V16.6585C9.11322 16.6586 9.41179 16.9589 9.41179 17.3292C9.41172 17.6995 9.11318 17.9999 8.74524 18H5.33969C3.49717 17.9959 2.00407 16.4934 2 14.6392V7.81422C2.01183 7.02562 2.37995 6.28562 2.99981 5.80297L3.61447 5.34108Z" fill="white"/>
<path d="M8.06374 1.68207C9.18802 0.772644 10.79 0.772644 11.9143 1.68207L17.0301 5.78791C17.6363 6.27851 17.9921 7.01641 18 7.79916L17.993 14.6322C17.9929 16.4879 16.4974 17.992 14.6533 17.992H13.1726C12.2801 17.9919 11.5554 17.2663 11.5511 16.3683V13.2837C11.5511 13.0451 11.3591 12.851 11.122 12.8509H8.9009C8.78577 12.8509 8.67532 12.8978 8.59457 12.9804C8.51384 13.0631 8.46888 13.1748 8.47084 13.2907V14.4675C8.47084 14.8377 8.1731 15.138 7.8053 15.1383C7.43728 15.1383 7.13876 14.8379 7.13876 14.4675V13.2907C7.13878 12.8184 7.3248 12.3655 7.65663 12.0315C7.98846 11.6976 8.43861 11.5104 8.90789 11.5104H11.129C12.1034 11.5145 12.8911 12.3101 12.8912 13.2907V16.3683C12.8914 16.5244 13.0174 16.6514 13.1726 16.6515H14.6902C15.7943 16.6515 16.6899 15.7503 16.6899 14.6392V7.81422C16.6844 7.4363 16.5102 7.08111 16.2159 6.84625L11.1001 2.74041C10.4549 2.20591 9.52311 2.20591 8.87795 2.74041L7.23455 3.97748C6.92992 4.19743 6.50534 4.12733 6.28662 3.82084C6.06795 3.5143 6.13773 3.08707 6.44228 2.86693L8.06374 1.68207Z" fill="white"/>
</svg>
