<svg width="20" height="20" viewBox="0 0 20 20" fill="none" xmlns="http://www.w3.org/2000/svg">
<path d="M15.905 15.8081L15.525 13.1787L18 12.192V7.80814L15.5258 6.82181L15.906 4.19193L12.0961 2L10.0006 3.64306L7.90503 2L4.09521 4.19193L4.47526 6.82137L2 7.80814V12.192L4.47613 13.1791L4.09615 15.8081L7.90597 18L10.0006 16.3577L12.0952 18L15.905 15.8081Z" stroke="white" stroke-linecap="square"/>
<path d="M9.99999 12.6667C11.4728 12.6667 12.6667 11.4728 12.6667 10C12.6667 8.52725 11.4728 7.33334 9.99999 7.33334C8.52724 7.33334 7.33333 8.52725 7.33333 10C7.33333 11.4728 8.52724 12.6667 9.99999 12.6667Z" stroke="white" stroke-linecap="square"/>
</svg>
